<svg xmlns="http://www.w3.org/2000/svg" viewBox="0 0 831.3 163.05"><defs><style>.cls-1{fill:#009eff;}</style></defs><title>Pathfinder-logo</title><g id="Слой_2" data-name="Слой 2"><g id="Logo"><path class="cls-1" d="M154.22.05H31A31.07,31.07,0,0,0,0,31L0,160.42a2.61,2.61,0,0,0,4.81,1.41c3.87-6.14,9.7-12.85,16.9-20.05,13.91-13.92,28.69-20.87,47.82-20.87l84.66-.16a31.07,31.07,0,0,0,31-31V31A31.07,31.07,0,0,0,154.22.05Zm-110,71.87A10.14,10.14,0,1,1,54.36,61.78,10.14,10.14,0,0,1,44.23,71.92Zm47,0a10.14,10.14,0,1,1,10.14-10.14A10.14,10.14,0,0,1,91.22,71.92Zm47,0a10.14,10.14,0,1,1,10.14-10.14A10.13,10.13,0,0,1,138.21,71.92Z"/><path class="cls-1" d="M248.47,3.84h34c18.84,0,27.24,13.56,27.24,27.12s-8.4,27-27.24,27H266.11V86.52H248.47Zm17.64,15.48V42.6h15.48C288.43,42.6,292,36.36,292,31c0-5.16-3.36-11.64-10-11.64Z"/><path class="cls-1" d="M361.63,80.16c-3.6,5.4-12,7.44-16.32,7.44a28.59,28.59,0,0,1-28.56-29.16,28.59,28.59,0,0,1,28.56-29.16c3.6,0,12,1.2,16.32,7.44V30.48h16.56v56H361.63Zm-13.56-8.4c6.84,0,13.56-4.92,13.56-13.32s-6.72-13.32-13.56-13.32-14,5.28-14,13.32S341.11,71.76,348.07,71.76Z"/><path class="cls-1" d="M427.15,30.48v13.2H415.39V86.52H398.83V43.68h-10.2V30.48h10.2V9h16.56V30.48Z"/><path class="cls-1" d="M454,86.52H437.35V0H454V39.24c2.28-7,10.44-10,15.72-10,14.76,0,22.44,9.84,22.44,26.76V86.52H475.51V56.64c0-7.32-5.28-11.16-10.32-11.16-5.28,0-11.16,2.88-11.16,11.4Z"/><path class="cls-1" d="M543.91,16h-6.12c-5.76,0-8.52,4.08-8.52,10.68v3.84h11.28v13.2H529.27V86.52h-16.8V43.68H501.91V30.48h10.56V26.64C512.47,9.48,521.71,0,537.79,0h6.12Z"/><path class="cls-1" d="M559.15,0c5.64,0,10.2,4.2,10.2,9.72a10,10,0,0,1-10.2,9.84c-5.64,0-10.44-4.32-10.44-9.84S553.51,0,559.15,0Zm8.28,86.52H550.87v-56h16.56Z"/><path class="cls-1" d="M599.47,86.52H582.79v-56h16.68v8.16c3-5.64,9.6-9.36,16.19-9.36,12.6,0,20.52,7.8,20.52,23.76V86.52H619.5V56.64c0-7.44-4.08-11.16-9.72-11.16-5.87,0-10.31,2.88-10.31,11.4Z"/><path class="cls-1" d="M691.26,86.52v-7c-2.76,5.16-9.48,8.16-16.44,8.16-14.4,0-27.12-11.4-27.12-29,0-18,12.72-29.4,27.12-29.4,7,0,13.68,2.88,16.44,8V0h16.56V86.52ZM677.94,45c-7.08,0-13,5.28-13,13.32,0,8.28,5.88,13.56,13,13.56s13-5.52,13-13.56C690.9,49.92,684.78,45,677.94,45Z"/><path class="cls-1" d="M774.66,76.32c-5.64,8.4-16.08,11.4-25.56,11.4-16.08,0-29.28-11.76-29.28-29.4s13.2-29,29.28-29,28.68,11.88,28.68,29.52c0,1.44-.12,3.72-.24,5.16h-41c.84,6.48,7.92,9.36,13.8,9.36,4.56,0,9.48-1.68,12.24-5.28ZM761,53.52c-.84-6.84-7.08-9.6-11.76-9.6s-11,2.52-12.48,9.6Z"/><path class="cls-1" d="M805.86,86.52H789.18v-56h16.68V44c2.88-10.44,10.08-14.76,15.84-14.76a20.68,20.68,0,0,1,9.6,2l-3,15a18.91,18.91,0,0,0-8.52-1.68c-9.6,0-13.92,7.56-13.92,22.32Z"/><path class="cls-1" d="M258.8,122.16a12.73,12.73,0,1,1-12.64,12.74A12.66,12.66,0,0,1,258.8,122.16Zm0,19.4a6.68,6.68,0,1,0-6.56-6.66A6.61,6.61,0,0,0,258.8,141.56Z"/><path class="cls-1" d="M301.67,122.48v24.8h-5.25l-7.6-13.53v13.53h-6v-24.8h5.43l7.42,13.36V122.48Z"/><path class="cls-1" d="M314.42,147.28v-24.8h6.08V142h8.93v5.25Z"/><path class="cls-1" d="M340.26,122.48h6v24.8h-6Z"/><path class="cls-1" d="M377.88,122.48v24.8h-5.25L365,133.75v13.53h-6v-24.8h5.44l7.41,13.36V122.48Z"/><path class="cls-1" d="M390.63,147.28v-24.8h16.09v5.26H396.64v4.75h8.85v5.15h-8.85V142H407v5.25Z"/><path class="cls-1" d="M434.51,147.28v-24.8H450.6v5.26H440.52v4.75h8.86v5.15h-8.86V142h10.41v5.25Z"/><path class="cls-1" d="M481.49,122.48v24.8h-5.26l-7.59-13.53v13.53h-6v-24.8h5.43l7.42,13.36V122.48Z"/><path class="cls-1" d="M510.83,130.33a6.74,6.74,0,0,0-5.22-2.59,6.88,6.88,0,0,0-6.69,7.16c0,3.89,2.91,7.24,6.69,7.24,2.92,0,5.15-1,5.69-3.31h-6.95V134h13.5c0,9.51-5.11,13.61-12.24,13.61a12.73,12.73,0,1,1,0-25.45,12.37,12.37,0,0,1,9.68,4.39Z"/><path class="cls-1" d="M528.65,147.28v-24.8h6.09V142h8.92v5.25Z"/><path class="cls-1" d="M554.5,122.48h6v24.8h-6Z"/><path class="cls-1" d="M578,139.91c.07,1.33,1,2.41,3.06,2.41,1.54,0,3.06-.69,3.06-2.23,0-.4,0-1.23-2.49-2.06l-2.91-1c-5.55-1.51-6.48-5-6.48-7.31,0-4.53,3.71-7.59,8.67-7.59s8.53,2.84,8.53,7.74h-6c0-1.33-.75-2.3-2.59-2.3-1.62,0-2.63.79-2.63,2,0,.47.15,1.37,2.31,2l2.84.9c6.52,2,6.88,5.8,6.88,7.56,0,5.47-5,7.56-9.18,7.56-5.55,0-9.15-3-9.15-7.7Z"/><path class="cls-1" d="M615.12,122.48h6.12v24.8h-6.12v-9.64h-7.56v9.64h-6v-24.8h6v9.79h7.56Z"/><path class="cls-1" d="M654.51,139.91c.07,1.33,1,2.41,3.06,2.41,1.54,0,3-.69,3-2.23,0-.4,0-1.23-2.48-2.06l-2.91-1c-5.55-1.51-6.48-5-6.48-7.31,0-4.53,3.7-7.59,8.67-7.59S666,125,666,129.9h-6c0-1.33-.76-2.3-2.59-2.3-1.62,0-2.63.79-2.63,2,0,.47.14,1.37,2.31,2l2.84.9c6.51,2,6.87,5.8,6.87,7.56,0,5.47-5,7.56-9.17,7.56-5.55,0-9.15-3-9.15-7.7Z"/><path class="cls-1" d="M699.83,141.92a12.7,12.7,0,1,1,0-14.07c.43-.33-5,3.49-5,3.49a6.62,6.62,0,1,0,0,7.13Z"/><path class="cls-1" d="M724.27,122.48h6.12v24.8h-6.12v-9.64h-7.56v9.64h-6v-24.8h6v9.79h7.56Z"/><path class="cls-1" d="M754.37,122.16a12.73,12.73,0,1,1-12.64,12.74A12.66,12.66,0,0,1,754.37,122.16Zm0,19.4a6.68,6.68,0,1,0-6.55-6.66A6.61,6.61,0,0,0,754.37,141.56Z"/><path class="cls-1" d="M789.61,122.16A12.73,12.73,0,1,1,777,134.9,12.66,12.66,0,0,1,789.61,122.16Zm0,19.4a6.68,6.68,0,1,0-6.55-6.66A6.61,6.61,0,0,0,789.61,141.56Z"/><path class="cls-1" d="M813.62,147.28v-24.8h6.09V142h8.92v5.25Z"/></g></g></svg>