<?xml version="1.0" encoding="utf-8"?>
<!-- Generator: Adobe Illustrator 21.1.0, SVG Export Plug-In . SVG Version: 6.00 Build 0)  -->
<svg version="1.1" id="Capa_1" xmlns="http://www.w3.org/2000/svg" xmlns:xlink="http://www.w3.org/1999/xlink" x="0px" y="0px"
	 viewBox="0 0 512 512" style="enable-background:new 0 0 512 512;" xml:space="preserve">
<style type="text/css">
	.st0{fill:#008FFF;}
</style>
<g>
	<path class="st0" d="M256,0C114.8,0,0,114.8,0,256s114.8,256,256,256s256-114.8,256-256S397.2,0,256,0z M256,493.7
		C124.9,493.7,18.3,387.1,18.3,256S124.9,18.3,256,18.3S493.7,124.9,493.7,256S387.1,493.7,256,493.7z"/>
	<path class="st0" d="M365.7,146.3H146.3c-5.1,0-9.1,4.1-9.1,9.1s4.1,9.1,9.1,9.1h219.4c5.1,0,9.1-4.1,9.1-9.1
		S370.8,146.3,365.7,146.3z"/>
	<path class="st0" d="M365.7,246.9H146.3c-5.1,0-9.1,4.1-9.1,9.1c0,5,4.1,9.1,9.1,9.1h219.4c5.1,0,9.1-4.1,9.1-9.1
		C374.9,251,370.8,246.9,365.7,246.9z"/>
	<path class="st0" d="M365.7,347.4H146.3c-5.1,0-9.1,4.1-9.1,9.1s4.1,9.1,9.1,9.1h219.4c5.1,0,9.1-4.1,9.1-9.1
		S370.8,347.4,365.7,347.4z"/>
</g>
</svg>
